<?xml version="1.0" encoding="UTF-8"?>
<svg xmlns="http://www.w3.org/2000/svg" version="1.1" viewBox="0 0 1920 1050" opacity="0.5">
  <defs>
    <style>
      .cls-1 {
        fill: none;
        stroke: #000;
        stroke-miterlimit: 10;
        opacity: 0.05; /* 設置不透明度為5% */
      }
    </style>
  </defs>
  <!-- Generator: Adobe Illustrator 28.7.1, SVG Export Plug-In . SVG Version: 1.2.0 Build 142)  -->
  <g>
    <g id="_圖層_1" data-name="圖層_1">
      <g>
        <line class="cls-1" y1="1050" x2="1920" y2="1050"/>
        <line class="cls-1" y1="1020" x2="1920" y2="1020"/>
        <line class="cls-1" y1="990" x2="1920" y2="990"/>
        <line class="cls-1" y1="960" x2="1920" y2="960"/>
        <line class="cls-1" y1="930" x2="1920" y2="930"/>
        <line class="cls-1" y1="900" x2="1920" y2="900"/>
        <line class="cls-1" y1="870" x2="1920" y2="870"/>
        <line class="cls-1" y1="840" x2="1920" y2="840"/>
        <line class="cls-1" y1="810" x2="1920" y2="810"/>
        <line class="cls-1" y1="780" x2="1920" y2="780"/>
        <line class="cls-1" y1="750" x2="1920" y2="750"/>
        <line class="cls-1" y1="720" x2="1920" y2="720"/>
        <line class="cls-1" y1="690" x2="1920" y2="690"/>
        <line class="cls-1" y1="660" x2="1920" y2="660"/>
        <line class="cls-1" y1="630" x2="1920" y2="630"/>
        <line class="cls-1" y1="600" x2="1920" y2="600"/>
        <line class="cls-1" y1="570" x2="1920" y2="570"/>
        <line class="cls-1" y1="540" x2="1920" y2="540"/>
        <line class="cls-1" y1="510" x2="1920" y2="510"/>
        <line class="cls-1" y1="480" x2="1920" y2="480"/>
        <line class="cls-1" y1="450" x2="1920" y2="450"/>
        <line class="cls-1" y1="420" x2="1920" y2="420"/>
        <line class="cls-1" y1="390" x2="1920" y2="390"/>
        <line class="cls-1" y1="360" x2="1920" y2="360"/>
        <line class="cls-1" y1="330" x2="1920" y2="330"/>
        <line class="cls-1" y1="300" x2="1920" y2="300"/>
        <line class="cls-1" y1="270" x2="1920" y2="270"/>
        <line class="cls-1" y1="240" x2="1920" y2="240"/>
        <line class="cls-1" y1="210" x2="1920" y2="210"/>
        <line class="cls-1" y1="180" x2="1920" y2="180"/>
        <line class="cls-1" y1="150" x2="1920" y2="150"/>
        <line class="cls-1" y1="120" x2="1920" y2="120"/>
        <line class="cls-1" y1="90" x2="1920" y2="90"/>
        <line class="cls-1" y1="60" x2="1920" y2="60"/>
        <line class="cls-1" y1="30" x2="1920" y2="30"/>
        <line class="cls-1" x2="1920"/>
      </g>
      <g>
        <line class="cls-1" x1="1920" x2="1920" y2="1050"/>
        <line class="cls-1" x1="1890" x2="1890" y2="1050"/>
        <line class="cls-1" x1="1860" x2="1860" y2="1050"/>
        <line class="cls-1" x1="1830" x2="1830" y2="1050"/>
        <line class="cls-1" x1="1800" x2="1800" y2="1050"/>
        <line class="cls-1" x1="1770" x2="1770" y2="1050"/>
        <line class="cls-1" x1="1740" x2="1740" y2="1050"/>
        <line class="cls-1" x1="1710" x2="1710" y2="1050"/>
        <line class="cls-1" x1="1680" x2="1680" y2="1050"/>
        <line class="cls-1" x1="1650" x2="1650" y2="1050"/>
        <line class="cls-1" x1="1620" x2="1620" y2="1050"/>
        <line class="cls-1" x1="1590" x2="1590" y2="1050"/>
        <line class="cls-1" x1="1560" x2="1560" y2="1050"/>
        <line class="cls-1" x1="1530" x2="1530" y2="1050"/>
        <line class="cls-1" x1="1500" x2="1500" y2="1050"/>
        <line class="cls-1" x1="1470" x2="1470" y2="1050"/>
        <line class="cls-1" x1="1440" x2="1440" y2="1050"/>
        <line class="cls-1" x1="1410" x2="1410" y2="1050"/>
        <line class="cls-1" x1="1380" x2="1380" y2="1050"/>
        <line class="cls-1" x1="1350" x2="1350" y2="1050"/>
        <line class="cls-1" x1="1320" x2="1320" y2="1050"/>
        <line class="cls-1" x1="1290" x2="1290" y2="1050"/>
        <line class="cls-1" x1="1260" x2="1260" y2="1050"/>
        <line class="cls-1" x1="1230" x2="1230" y2="1050"/>
        <line class="cls-1" x1="1200" x2="1200" y2="1050"/>
        <line class="cls-1" x1="1170" x2="1170" y2="1050"/>
        <line class="cls-1" x1="1140" x2="1140" y2="1050"/>
        <line class="cls-1" x1="1110" x2="1110" y2="1050"/>
        <line class="cls-1" x1="1080" x2="1080" y2="1050"/>
        <line class="cls-1" x1="1050" x2="1050" y2="1050"/>
        <line class="cls-1" x1="1020" x2="1020" y2="1050"/>
        <line class="cls-1" x1="990" x2="990" y2="1050"/>
        <line class="cls-1" x1="960" x2="960" y2="1050"/>
        <line class="cls-1" x1="930" x2="930" y2="1050"/>
        <line class="cls-1" x1="900" x2="900" y2="1050"/>
        <line class="cls-1" x1="870" x2="870" y2="1050"/>
        <line class="cls-1" x1="840" x2="840" y2="1050"/>
        <line class="cls-1" x1="810" x2="810" y2="1050"/>
        <line class="cls-1" x1="780" x2="780" y2="1050"/>
        <line class="cls-1" x1="750" x2="750" y2="1050"/>
        <line class="cls-1" x1="720" x2="720" y2="1050"/>
        <line class="cls-1" x1="690" x2="690" y2="1050"/>
        <line class="cls-1" x1="660" x2="660" y2="1050"/>
        <line class="cls-1" x1="630" x2="630" y2="1050"/>
        <line class="cls-1" x1="600" x2="600" y2="1050"/>
        <line class="cls-1" x1="570" x2="570" y2="1050"/>
        <line class="cls-1" x1="540" x2="540" y2="1050"/>
        <line class="cls-1" x1="510" x2="510" y2="1050"/>
        <line class="cls-1" x1="480" x2="480" y2="1050"/>
        <line class="cls-1" x1="450" x2="450" y2="1050"/>
        <line class="cls-1" x1="420" x2="420" y2="1050"/>
        <line class="cls-1" x1="390" x2="390" y2="1050"/>
        <line class="cls-1" x1="360" x2="360" y2="1050"/>
        <line class="cls-1" x1="330" x2="330" y2="1050"/>
        <line class="cls-1" x1="300" x2="300" y2="1050"/>
        <line class="cls-1" x1="270" x2="270" y2="1050"/>
        <line class="cls-1" x1="240" x2="240" y2="1050"/>
        <line class="cls-1" x1="210" x2="210" y2="1050"/>
        <line class="cls-1" x1="180" x2="180" y2="1050"/>
        <line class="cls-1" x1="150" x2="150" y2="1050"/>
        <line class="cls-1" x1="120" x2="120" y2="1050"/>
        <line class="cls-1" x1="90" x2="90" y2="1050"/>
        <line class="cls-1" x1="60" x2="60" y2="1050"/>
        <line class="cls-1" x1="30" x2="30" y2="1050"/>
        <line class="cls-1" y2="1050"/>
      </g>
    </g>
  </g>
</svg>